<?xml version="1.0" encoding="UTF-8" standalone="no"?>
<!DOCTYPE svg PUBLIC "-//W3C//DTD SVG 1.1//EN"
 "http://www.w3.org/Graphics/SVG/1.1/DTD/svg11.dtd">
<!-- Generated by graphviz version 2.38.0 (20140413.2041)
 -->
<!-- Title: models_diagram Pages: 1 -->
<svg width="615pt" height="288pt"
 viewBox="0.00 0.00 614.55 288.00" xmlns="http://www.w3.org/2000/svg" xmlns:xlink="http://www.w3.org/1999/xlink">
<g id="graph0" class="graph" transform="scale(1 1) rotate(0) translate(4 284)">
<title>models_diagram</title>
<polygon fill="none" stroke="none" points="-4,4 -4,-284 610.55,-284 610.55,4 -4,4"/>
<!-- _diagram_info -->
<g id="node1" class="node"><title>_diagram_info</title>
<text text-anchor="start" x="8" y="-237.6" font-family="Times,serif" font-size="13.00">Models diagram</text>
<text text-anchor="start" x="8" y="-224.6" font-family="Times,serif" font-size="13.00">Date: Aug 17 2016 &#45; 20:44</text>
<text text-anchor="start" x="8" y="-211.6" font-family="Times,serif" font-size="13.00">Migration version: 20160818004915</text>
<text text-anchor="start" x="8" y="-198.6" font-family="Times,serif" font-size="13.00">Generated by RailRoady 1.5.1</text>
<text text-anchor="start" x="8" y="-185.6" font-family="Times,serif" font-size="13.00">http://railroady.prestonlee.com</text>
</g>
<!-- Classroom -->
<g id="node2" class="node"><title>Classroom</title>
<path fill="none" stroke="black" d="M104.825,-7.5C104.825,-7.5 328.55,-7.5 328.55,-7.5 334.55,-7.5 340.55,-13.5 340.55,-19.5 340.55,-19.5 340.55,-95.5 340.55,-95.5 340.55,-101.5 334.55,-107.5 328.55,-107.5 328.55,-107.5 104.825,-107.5 104.825,-107.5 98.8254,-107.5 92.8254,-101.5 92.8254,-95.5 92.8254,-95.5 92.8254,-19.5 92.8254,-19.5 92.8254,-13.5 98.8254,-7.5 104.825,-7.5"/>
<text text-anchor="middle" x="216.688" y="-92.3" font-family="Times,serif" font-size="14.00">Classroom</text>
<polyline fill="none" stroke="black" points="92.8254,-85.5 340.55,-85.5 "/>
<text text-anchor="start" x="100.825" y="-70.3" font-family="Times,serif" font-size="14.00">id :integer</text>
<text text-anchor="start" x="100.825" y="-56.3" font-family="Times,serif" font-size="14.00">name :character varying</text>
<text text-anchor="start" x="100.825" y="-42.3" font-family="Times,serif" font-size="14.00">curse_id :integer</text>
<text text-anchor="start" x="100.825" y="-28.3" font-family="Times,serif" font-size="14.00">created_at :timestamp without time zone</text>
<text text-anchor="start" x="100.825" y="-14.3" font-family="Times,serif" font-size="14.00">updated_at :timestamp without time zone</text>
</g>
<!-- Curse -->
<g id="node3" class="node"><title>Curse</title>
<path fill="none" stroke="black" d="M237.825,-151.5C237.825,-151.5 461.55,-151.5 461.55,-151.5 467.55,-151.5 473.55,-157.5 473.55,-163.5 473.55,-163.5 473.55,-267.5 473.55,-267.5 473.55,-273.5 467.55,-279.5 461.55,-279.5 461.55,-279.5 237.825,-279.5 237.825,-279.5 231.825,-279.5 225.825,-273.5 225.825,-267.5 225.825,-267.5 225.825,-163.5 225.825,-163.5 225.825,-157.5 231.825,-151.5 237.825,-151.5"/>
<text text-anchor="middle" x="349.688" y="-264.3" font-family="Times,serif" font-size="14.00">Curse</text>
<polyline fill="none" stroke="black" points="225.825,-257.5 473.55,-257.5 "/>
<text text-anchor="start" x="233.825" y="-242.3" font-family="Times,serif" font-size="14.00">price :double precision</text>
<text text-anchor="start" x="233.825" y="-228.3" font-family="Times,serif" font-size="14.00">name :character varying</text>
<text text-anchor="start" x="233.825" y="-214.3" font-family="Times,serif" font-size="14.00">date :date</text>
<text text-anchor="start" x="233.825" y="-200.3" font-family="Times,serif" font-size="14.00">id :integer</text>
<text text-anchor="start" x="233.825" y="-186.3" font-family="Times,serif" font-size="14.00">created_at :timestamp without time zone</text>
<text text-anchor="start" x="233.825" y="-172.3" font-family="Times,serif" font-size="14.00">updated_at :timestamp without time zone</text>
<text text-anchor="start" x="233.825" y="-158.3" font-family="Times,serif" font-size="14.00">classroom_id :integer</text>
</g>
<!-- Curse&#45;&gt;Classroom -->
<g id="edge2" class="edge"><title>Curse&#45;&gt;Classroom</title>
<path fill="none" stroke="#32a2dd" d="M290.712,-145.325C281.789,-134.86 272.683,-124.179 264.048,-114.051"/>
<ellipse fill="none" stroke="#32a2dd" cx="293.38" cy="-148.455" rx="4.00002" ry="4.00002"/>
<ellipse fill="#32a2dd" stroke="#32a2dd" cx="261.334" cy="-110.866" rx="4.00002" ry="4.00002"/>
</g>
<!-- Student -->
<g id="node4" class="node"><title>Student</title>
<path fill="none" stroke="black" d="M370.825,-0.5C370.825,-0.5 594.55,-0.5 594.55,-0.5 600.55,-0.5 606.55,-6.5 606.55,-12.5 606.55,-12.5 606.55,-102.5 606.55,-102.5 606.55,-108.5 600.55,-114.5 594.55,-114.5 594.55,-114.5 370.825,-114.5 370.825,-114.5 364.825,-114.5 358.825,-108.5 358.825,-102.5 358.825,-102.5 358.825,-12.5 358.825,-12.5 358.825,-6.5 364.825,-0.5 370.825,-0.5"/>
<text text-anchor="middle" x="482.688" y="-99.3" font-family="Times,serif" font-size="14.00">Student</text>
<polyline fill="none" stroke="black" points="358.825,-92.5 606.55,-92.5 "/>
<text text-anchor="start" x="366.825" y="-77.3" font-family="Times,serif" font-size="14.00">id :integer</text>
<text text-anchor="start" x="366.825" y="-63.3" font-family="Times,serif" font-size="14.00">name :character varying</text>
<text text-anchor="start" x="366.825" y="-49.3" font-family="Times,serif" font-size="14.00">age :double precision</text>
<text text-anchor="start" x="366.825" y="-35.3" font-family="Times,serif" font-size="14.00">curse_id :integer</text>
<text text-anchor="start" x="366.825" y="-21.3" font-family="Times,serif" font-size="14.00">created_at :timestamp without time zone</text>
<text text-anchor="start" x="366.825" y="-7.3" font-family="Times,serif" font-size="14.00">updated_at :timestamp without time zone</text>
</g>
<!-- Curse&#45;&gt;Student -->
<g id="edge1" class="edge"><title>Curse&#45;&gt;Student</title>
<path fill="none" stroke="#45fd7d" d="M408.786,-145.181C415.171,-137.692 421.648,-130.095 427.978,-122.671"/>
<ellipse fill="none" stroke="#45fd7d" cx="405.996" cy="-148.455" rx="4.00002" ry="4.00002"/>
<polygon fill="#45fd7d" stroke="#45fd7d" points="428.29,-122.305 438.202,-117.615 431.533,-118.5 434.777,-114.696 434.777,-114.696 434.777,-114.696 431.533,-118.5 431.353,-111.776 428.29,-122.305 428.29,-122.305"/>
</g>
</g>
</svg>
