<?xml version="1.0" encoding="UTF-8" standalone="no"?>
<!DOCTYPE svg PUBLIC "-//W3C//DTD SVG 1.1//EN"
 "http://www.w3.org/Graphics/SVG/1.1/DTD/svg11.dtd">
<!-- Generated by graphviz version 2.38.0 (20140413.2041)
 -->
<!-- Title: models_diagram Pages: 1 -->
<svg width="416pt" height="153pt"
 viewBox="0.00 0.00 415.82 153.00" xmlns="http://www.w3.org/2000/svg" xmlns:xlink="http://www.w3.org/1999/xlink">
<g id="graph0" class="graph" transform="scale(1 1) rotate(0) translate(4 149)">
<title>models_diagram</title>
<polygon fill="none" stroke="none" points="-4,4 -4,-149 411.817,-149 411.817,4 -4,4"/>
<!-- _diagram_info -->
<g id="node1" class="node"><title>_diagram_info</title>
<text text-anchor="start" x="8" y="-130.6" font-family="Times,serif" font-size="13.00">Models diagram</text>
<text text-anchor="start" x="8" y="-117.6" font-family="Times,serif" font-size="13.00">Date: Aug 17 2016 &#45; 20:01</text>
<text text-anchor="start" x="8" y="-104.6" font-family="Times,serif" font-size="13.00">Migration version: 20160818004915</text>
<text text-anchor="start" x="8" y="-91.6" font-family="Times,serif" font-size="13.00">Generated by RailRoady 1.5.1</text>
<text text-anchor="start" x="8" y="-78.6" font-family="Times,serif" font-size="13.00">http://railroady.prestonlee.com</text>
</g>
<!-- Classroom -->
<g id="node2" class="node"><title>Classroom</title>
<ellipse fill="none" stroke="black" cx="273.688" cy="-108.5" rx="47.8754" ry="18"/>
<text text-anchor="middle" x="273.688" y="-104.3" font-family="Times,serif" font-size="14.00">Classroom</text>
</g>
<!-- Curse -->
<g id="node3" class="node"><title>Curse</title>
<ellipse fill="none" stroke="black" cx="370.688" cy="-108.5" rx="30.9793" ry="18"/>
<text text-anchor="middle" x="370.688" y="-104.3" font-family="Times,serif" font-size="14.00">Curse</text>
</g>
<!-- Student -->
<g id="node4" class="node"><title>Student</title>
<ellipse fill="none" stroke="black" cx="370.688" cy="-18" rx="37.2594" ry="18"/>
<text text-anchor="middle" x="370.688" y="-13.8" font-family="Times,serif" font-size="14.00">Student</text>
</g>
<!-- Curse&#45;&gt;Student -->
<g id="edge1" class="edge"><title>Curse&#45;&gt;Student</title>
<path fill="none" stroke="#cb1869" d="M370.688,-82.189C370.688,-70.9711 370.688,-57.7517 370.688,-46.3113"/>
<ellipse fill="none" stroke="#cb1869" cx="370.688" cy="-86.4363" rx="4" ry="4"/>
<polygon fill="#cb1869" stroke="#cb1869" points="370.688,-46.0113 375.188,-36.0113 370.688,-41.0113 370.688,-36.0113 370.688,-36.0113 370.688,-36.0113 370.688,-41.0113 366.188,-36.0113 370.688,-46.0113 370.688,-46.0113"/>
</g>
</g>
</svg>
