<?xml version="1.0" encoding="UTF-8" standalone="no"?>
<!DOCTYPE svg PUBLIC "-//W3C//DTD SVG 1.1//EN"
 "http://www.w3.org/Graphics/SVG/1.1/DTD/svg11.dtd">
<!-- Generated by graphviz version 2.38.0 (20140413.2041)
 -->
<!-- Title: models_diagram Pages: 1 -->
<svg width="352pt" height="153pt"
 viewBox="0.00 0.00 351.82 153.00" xmlns="http://www.w3.org/2000/svg" xmlns:xlink="http://www.w3.org/1999/xlink">
<g id="graph0" class="graph" transform="scale(1 1) rotate(0) translate(4 149)">
<title>models_diagram</title>
<polygon fill="none" stroke="none" points="-4,4 -4,-149 347.817,-149 347.817,4 -4,4"/>
<!-- _diagram_info -->
<g id="node1" class="node"><title>_diagram_info</title>
<text text-anchor="start" x="8" y="-130.6" font-family="Times,serif" font-size="13.00">Models diagram</text>
<text text-anchor="start" x="8" y="-117.6" font-family="Times,serif" font-size="13.00">Date: Aug 17 2016 &#45; 20:44</text>
<text text-anchor="start" x="8" y="-104.6" font-family="Times,serif" font-size="13.00">Migration version: 20160818004915</text>
<text text-anchor="start" x="8" y="-91.6" font-family="Times,serif" font-size="13.00">Generated by RailRoady 1.5.1</text>
<text text-anchor="start" x="8" y="-78.6" font-family="Times,serif" font-size="13.00">http://railroady.prestonlee.com</text>
</g>
<!-- Classroom -->
<g id="node2" class="node"><title>Classroom</title>
<ellipse fill="none" stroke="black" cx="203.688" cy="-18" rx="47.8754" ry="18"/>
<text text-anchor="middle" x="203.688" y="-13.8" font-family="Times,serif" font-size="14.00">Classroom</text>
</g>
<!-- Curse -->
<g id="node3" class="node"><title>Curse</title>
<ellipse fill="none" stroke="black" cx="255.688" cy="-108.5" rx="30.9793" ry="18"/>
<text text-anchor="middle" x="255.688" y="-104.3" font-family="Times,serif" font-size="14.00">Curse</text>
</g>
<!-- Curse&#45;&gt;Classroom -->
<g id="edge2" class="edge"><title>Curse&#45;&gt;Classroom</title>
<path fill="none" stroke="#a923a3" d="M241.986,-84.1813C234.506,-71.4509 225.262,-55.7172 217.729,-42.8973"/>
<ellipse fill="none" stroke="#a923a3" cx="244.124" cy="-87.819" rx="4.00002" ry="4.00002"/>
<ellipse fill="#a923a3" stroke="#a923a3" cx="215.545" cy="-39.1794" rx="4.00002" ry="4.00002"/>
</g>
<!-- Student -->
<g id="node4" class="node"><title>Student</title>
<ellipse fill="none" stroke="black" cx="306.688" cy="-18" rx="37.2594" ry="18"/>
<text text-anchor="middle" x="306.688" y="-13.8" font-family="Times,serif" font-size="14.00">Student</text>
</g>
<!-- Curse&#45;&gt;Student -->
<g id="edge1" class="edge"><title>Curse&#45;&gt;Student</title>
<path fill="none" stroke="#db7209" d="M269.153,-84.134C276.195,-71.9145 284.825,-56.9379 292.034,-44.4281"/>
<ellipse fill="none" stroke="#db7209" cx="267.039" cy="-87.802" rx="4.00002" ry="4.00002"/>
<polygon fill="#db7209" stroke="#db7209" points="292.227,-44.0934 301.119,-37.6759 294.724,-39.7612 297.22,-35.4291 297.22,-35.4291 297.22,-35.4291 294.724,-39.7612 293.321,-33.1822 292.227,-44.0934 292.227,-44.0934"/>
</g>
</g>
</svg>
