<?xml version="1.0" encoding="UTF-8" standalone="no"?>
<!DOCTYPE svg PUBLIC "-//W3C//DTD SVG 1.1//EN"
 "http://www.w3.org/Graphics/SVG/1.1/DTD/svg11.dtd">
<!-- Generated by graphviz version 2.38.0 (20140413.2041)
 -->
<!-- Title: models_diagram Pages: 1 -->
<svg width="748pt" height="288pt"
 viewBox="0.00 0.00 747.55 288.00" xmlns="http://www.w3.org/2000/svg" xmlns:xlink="http://www.w3.org/1999/xlink">
<g id="graph0" class="graph" transform="scale(1 1) rotate(0) translate(4 284)">
<title>models_diagram</title>
<polygon fill="none" stroke="none" points="-4,4 -4,-284 743.55,-284 743.55,4 -4,4"/>
<!-- _diagram_info -->
<g id="node1" class="node"><title>_diagram_info</title>
<text text-anchor="start" x="8" y="-237.6" font-family="Times,serif" font-size="13.00">Models diagram</text>
<text text-anchor="start" x="8" y="-224.6" font-family="Times,serif" font-size="13.00">Date: Aug 17 2016 &#45; 20:01</text>
<text text-anchor="start" x="8" y="-211.6" font-family="Times,serif" font-size="13.00">Migration version: 20160818004915</text>
<text text-anchor="start" x="8" y="-198.6" font-family="Times,serif" font-size="13.00">Generated by RailRoady 1.5.1</text>
<text text-anchor="start" x="8" y="-185.6" font-family="Times,serif" font-size="13.00">http://railroady.prestonlee.com</text>
</g>
<!-- Classroom -->
<g id="node2" class="node"><title>Classroom</title>
<path fill="none" stroke="black" d="M237.825,-165.5C237.825,-165.5 461.55,-165.5 461.55,-165.5 467.55,-165.5 473.55,-171.5 473.55,-177.5 473.55,-177.5 473.55,-253.5 473.55,-253.5 473.55,-259.5 467.55,-265.5 461.55,-265.5 461.55,-265.5 237.825,-265.5 237.825,-265.5 231.825,-265.5 225.825,-259.5 225.825,-253.5 225.825,-253.5 225.825,-177.5 225.825,-177.5 225.825,-171.5 231.825,-165.5 237.825,-165.5"/>
<text text-anchor="middle" x="349.688" y="-250.3" font-family="Times,serif" font-size="14.00">Classroom</text>
<polyline fill="none" stroke="black" points="225.825,-243.5 473.55,-243.5 "/>
<text text-anchor="start" x="233.825" y="-228.3" font-family="Times,serif" font-size="14.00">id :integer</text>
<text text-anchor="start" x="233.825" y="-214.3" font-family="Times,serif" font-size="14.00">name :character varying</text>
<text text-anchor="start" x="233.825" y="-200.3" font-family="Times,serif" font-size="14.00">curse_id :integer</text>
<text text-anchor="start" x="233.825" y="-186.3" font-family="Times,serif" font-size="14.00">created_at :timestamp without time zone</text>
<text text-anchor="start" x="233.825" y="-172.3" font-family="Times,serif" font-size="14.00">updated_at :timestamp without time zone</text>
</g>
<!-- Curse -->
<g id="node3" class="node"><title>Curse</title>
<path fill="none" stroke="black" d="M503.825,-151.5C503.825,-151.5 727.55,-151.5 727.55,-151.5 733.55,-151.5 739.55,-157.5 739.55,-163.5 739.55,-163.5 739.55,-267.5 739.55,-267.5 739.55,-273.5 733.55,-279.5 727.55,-279.5 727.55,-279.5 503.825,-279.5 503.825,-279.5 497.825,-279.5 491.825,-273.5 491.825,-267.5 491.825,-267.5 491.825,-163.5 491.825,-163.5 491.825,-157.5 497.825,-151.5 503.825,-151.5"/>
<text text-anchor="middle" x="615.688" y="-264.3" font-family="Times,serif" font-size="14.00">Curse</text>
<polyline fill="none" stroke="black" points="491.825,-257.5 739.55,-257.5 "/>
<text text-anchor="start" x="499.825" y="-242.3" font-family="Times,serif" font-size="14.00">price :double precision</text>
<text text-anchor="start" x="499.825" y="-228.3" font-family="Times,serif" font-size="14.00">name :character varying</text>
<text text-anchor="start" x="499.825" y="-214.3" font-family="Times,serif" font-size="14.00">date :date</text>
<text text-anchor="start" x="499.825" y="-200.3" font-family="Times,serif" font-size="14.00">id :integer</text>
<text text-anchor="start" x="499.825" y="-186.3" font-family="Times,serif" font-size="14.00">created_at :timestamp without time zone</text>
<text text-anchor="start" x="499.825" y="-172.3" font-family="Times,serif" font-size="14.00">updated_at :timestamp without time zone</text>
<text text-anchor="start" x="499.825" y="-158.3" font-family="Times,serif" font-size="14.00">classroom_id :integer</text>
</g>
<!-- Student -->
<g id="node4" class="node"><title>Student</title>
<path fill="none" stroke="black" d="M503.825,-0.5C503.825,-0.5 727.55,-0.5 727.55,-0.5 733.55,-0.5 739.55,-6.5 739.55,-12.5 739.55,-12.5 739.55,-102.5 739.55,-102.5 739.55,-108.5 733.55,-114.5 727.55,-114.5 727.55,-114.5 503.825,-114.5 503.825,-114.5 497.825,-114.5 491.825,-108.5 491.825,-102.5 491.825,-102.5 491.825,-12.5 491.825,-12.5 491.825,-6.5 497.825,-0.5 503.825,-0.5"/>
<text text-anchor="middle" x="615.688" y="-99.3" font-family="Times,serif" font-size="14.00">Student</text>
<polyline fill="none" stroke="black" points="491.825,-92.5 739.55,-92.5 "/>
<text text-anchor="start" x="499.825" y="-77.3" font-family="Times,serif" font-size="14.00">id :integer</text>
<text text-anchor="start" x="499.825" y="-63.3" font-family="Times,serif" font-size="14.00">name :character varying</text>
<text text-anchor="start" x="499.825" y="-49.3" font-family="Times,serif" font-size="14.00">age :double precision</text>
<text text-anchor="start" x="499.825" y="-35.3" font-family="Times,serif" font-size="14.00">curse_id :integer</text>
<text text-anchor="start" x="499.825" y="-21.3" font-family="Times,serif" font-size="14.00">created_at :timestamp without time zone</text>
<text text-anchor="start" x="499.825" y="-7.3" font-family="Times,serif" font-size="14.00">updated_at :timestamp without time zone</text>
</g>
<!-- Curse&#45;&gt;Student -->
<g id="edge1" class="edge"><title>Curse&#45;&gt;Student</title>
<path fill="none" stroke="#b1e77e" d="M615.688,-143.448C615.688,-137.272 615.688,-131.038 615.688,-124.902"/>
<ellipse fill="none" stroke="#b1e77e" cx="615.688" cy="-147.498" rx="4" ry="4"/>
<polygon fill="#b1e77e" stroke="#b1e77e" points="615.688,-124.696 620.188,-114.696 615.688,-119.696 615.688,-114.696 615.688,-114.696 615.688,-114.696 615.688,-119.696 611.188,-114.696 615.688,-124.696 615.688,-124.696"/>
</g>
</g>
</svg>
